# xmcd
#
# Track frame offsets: 
#        150
#        26255
#        47814
#        73608
#
# Disc length: 1470 seconds
#
# Revision: 0
# Processed by: cddbd v1.5.2PL0 Copyright (c) Steve Scherf et al.
# Submitted via: ExactAudioCopy v0.99pb5
#
DISCID=2c05bc04
DTITLE=Ridley Bent - The Blood Trilogy
DYEAR=2010
DGENRE=Country
TTITLE0=Part I - Crooked And Loaded 
TTITLE1=Part II - Blood On The Stage
TTITLE2=Part III - Who's The Devil Now
TTITLE3=Suicidewinder (Country Remix)
EXTD=
EXTT0=
EXTT1=
EXTT2=
EXTT3=
PLAYORDER=
